{"glyphs":{"\u0000":{"ha":0,"x_min":0,"x_max":0,"o":""},"\r":{"ha":1157,"x_min":0,"x_max":0,"o":""}," ":{"ha":1157,"x_min":0,"x_max":0,"o":""},"E":{"ha":667,"x_min":-12,"x_max":654,"o":"m 222 13 l 189 13 q 150 75 169 35 q 113 167 133 110 q 74 311 93 224 q 74 561 46 461 l 74 576 q 35 623 54 594 q 3 689 15 651 q -11 774 -10 726 q 7 876 -12 821 q 44 962 19 926 q 107 1008 68 997 q 199 1041 149 1033 q 301 1044 249 1049 q 403 1028 353 1040 q 492 1003 453 1017 q 558 976 532 989 q 589 960 585 964 q 600 954 594 960 q 609 940 606 949 q 612 924 613 932 q 604 910 611 915 q 585 895 604 897 q 556 893 567 893 q 509 913 539 901 q 443 935 479 924 q 365 955 407 946 q 283 967 324 964 q 206 965 243 969 q 139 943 168 960 q 101 907 115 929 q 74 860 86 885 q 71 745 60 797 q 107 644 82 693 q 124 660 119 656 q 139 678 128 664 q 222 736 176 715 q 306 743 268 757 q 352 732 331 743 q 389 702 374 721 q 413 660 404 683 q 422 611 422 636 q 414 562 422 586 q 392 517 406 538 q 360 482 378 497 q 324 461 342 467 q 238 474 285 461 q 139 511 190 486 q 128 426 128 474 q 139 328 128 378 q 188 161 164 215 q 222 96 211 107 q 277 99 243 96 q 351 105 311 101 q 432 113 390 108 q 509 120 474 117 q 570 126 544 124 q 604 129 596 129 q 642 118 629 129 q 654 96 654 107 q 642 73 654 83 q 604 63 629 63 q 549 57 592 63 q 451 44 507 51 q 333 27 394 36 q 222 13 272 18 m 172 594 q 245 549 210 556 q 306 543 281 543 q 335 564 331 543 q 339 611 339 585 q 338 625 339 617 q 333 643 338 633 q 317 662 328 653 q 289 678 307 671 q 189 626 240 678 q 181 604 189 615 q 172 594 176 599 z "},"F":{"ha":685,"x_min":-83,"x_max":708,"o":"m 272 -19 q 249 -17 260 -19 q 239 -3 239 -15 q 211 79 231 17 q 169 227 192 142 q 126 410 147 313 q 94 601 106 508 q 84 769 82 693 q 110 885 86 844 q 174 960 131 933 q 273 1000 218 988 q 388 1013 328 1013 q 498 1007 447 1013 q 584 994 549 1001 q 628 982 619 986 q 647 976 640 982 q 656 963 653 971 q 659 948 658 956 q 660 935 660 940 q 648 912 660 922 q 611 901 636 901 q 549 917 588 910 q 467 928 511 925 q 376 931 422 932 q 288 923 329 931 q 217 898 247 915 q 175 853 188 881 q 156 770 158 824 q 162 647 154 717 q 185 495 169 576 q 221 332 201 414 q 263 172 240 250 q 306 29 285 93 q 305 15 306 24 q 301 -1 304 7 q 292 -14 299 -8 q 272 -19 285 -19 m -50 256 q -73 265 -62 256 q -83 288 -83 275 q -79 311 -83 299 q -50 336 -75 324 q -6 343 -46 336 q 95 361 33 350 q 234 385 157 372 q 390 408 311 397 q 544 426 469 419 q 675 433 619 433 q 698 421 688 433 q 708 383 708 408 q 698 363 708 372 q 675 353 688 353 q 580 349 633 353 q 469 338 526 344 q 351 322 411 331 q 236 304 292 313 q -35 256 104 282 l -50 256 z "},"G":{"ha":732,"x_min":-65,"x_max":775,"o":"m 417 -86 q 343 -73 386 -86 q 253 -39 300 -60 q 157 8 206 -18 q 67 58 108 33 q -6 103 25 82 q -51 133 -37 124 q -62 154 -61 144 q -64 175 -64 164 q -37 192 -54 185 q -8 188 -19 199 q 108 113 43 151 q 235 44 174 75 q 347 -4 297 14 q 417 -17 396 -22 q 483 7 453 -12 q 540 58 513 26 q 593 129 567 89 q 650 217 619 169 q 676 281 665 238 q 695 383 688 325 q 708 508 703 442 q 718 642 714 575 q 678 560 699 578 q 644 474 667 524 q 576 380 621 425 q 460 303 532 335 q 281 272 389 272 q 165 298 218 272 q 68 364 111 324 q -5 456 25 404 q -51 560 -35 507 q -63 641 -61 601 q -58 715 -65 681 q -31 778 -50 750 q 18 821 -12 806 q 119 855 60 849 q 247 855 179 861 q 383 833 314 849 q 509 800 451 817 q 608 769 567 783 q 664 753 650 756 q 671 751 667 753 q 678 738 678 747 q 696 806 689 774 q 708 864 703 839 q 718 917 714 892 l 774 917 q 774 848 774 900 q 774 725 775 796 q 770 572 774 654 q 759 413 767 490 q 739 273 751 336 q 706 175 726 210 q 640 80 669 124 q 578 3 610 36 q 512 -53 547 -31 q 429 -86 476 -76 l 417 -86 m 169 793 q 103 790 139 793 q 46 765 67 786 q 2 679 6 733 q 18 572 -1 625 q 53 484 28 526 q 113 410 78 442 q 190 358 147 378 q 281 339 233 339 q 431 364 372 339 q 528 425 490 389 q 586 501 565 461 q 622 572 607 542 q 643 623 633 594 q 664 683 653 651 q 650 685 653 683 q 636 697 647 686 q 552 723 606 707 q 434 755 499 739 q 300 782 369 771 q 169 793 231 793 z "},"H":{"ha":661,"x_min":-43,"x_max":672,"o":"m 89 -14 q 69 -10 78 -14 q 60 15 60 -7 q 54 63 56 33 q 53 126 53 88 q 60 221 53 165 q 64 285 63 246 q 66 370 65 324 q 66 469 67 417 q 65 571 65 521 q 60 822 64 688 q 69 842 60 833 q 89 851 78 851 q 117 842 100 851 q 133 822 133 833 l 133 221 q 126 126 126 165 q 128 63 126 88 q 133 15 129 33 q 124 -5 133 4 q 104 -14 115 -14 l 89 -14 m 471 -87 q 449 -78 460 -87 q 426 -58 438 -69 q 424 -21 426 -53 q 421 55 422 11 q 420 147 419 99 q 426 235 421 196 q 437 300 432 254 q 447 408 442 346 q 458 544 453 471 q 467 692 463 618 q 485 1071 476 864 q 501 1092 485 1082 q 529 1101 518 1101 q 549 1092 540 1101 q 558 1071 558 1082 q 556 1031 558 1065 q 551 942 554 996 q 543 819 547 888 q 534 678 539 751 q 524 533 529 606 q 515 399 519 461 q 506 290 510 336 q 500 221 503 243 q 493 142 493 188 q 494 56 493 96 q 500 -43 496 7 q 491 -76 500 -65 q 471 -87 482 -87 m -14 529 q -34 538 -25 529 q -43 558 -43 547 q -40 585 -43 569 q -14 601 -36 601 q 18 607 -10 601 q 89 620 46 613 q 185 637 132 628 q 290 652 238 646 q 390 661 343 658 q 471 661 438 664 q 549 645 514 656 q 610 624 585 635 q 648 603 635 613 q 661 588 661 593 q 672 571 672 588 q 661 543 672 554 q 644 532 661 532 q 617 543 628 532 q 575 567 600 556 q 524 586 554 576 q 456 601 494 596 q 360 594 422 601 q 228 576 297 588 q 97 553 160 565 q 1 529 35 540 l -14 529 z "},"I":{"ha":603,"x_min":-133,"x_max":814,"o":"m 286 -69 q 265 -60 275 -69 q 256 -39 256 -50 q 253 11 256 -33 q 250 117 251 56 q 249 245 249 178 q 256 365 250 313 l 256 972 q 265 993 256 983 q 286 1003 275 1003 q 307 993 297 1003 q 317 972 317 983 q 318 927 317 964 q 320 835 319 890 q 322 715 321 781 q 324 585 324 650 q 322 462 324 519 q 317 365 321 404 l 317 -39 q 307 -60 317 -50 q 286 -69 297 -69 m -103 800 q -124 810 -114 800 q -133 832 -133 821 q -124 867 -133 856 q -103 878 -114 878 q -53 881 -96 878 q 49 890 -11 885 q 183 899 110 894 q 326 908 256 904 q 456 912 396 911 q 550 908 515 913 l 706 908 q 726 885 717 897 q 736 863 736 874 q 725 842 736 851 q 690 832 714 832 l 550 832 q 483 835 524 835 q 392 833 442 835 q 287 829 342 832 q 179 822 232 826 q -87 800 54 814 l -103 800 m 22 40 q -1 50 11 40 q -24 71 -12 60 q -14 99 -24 82 q 7 117 -4 117 q 38 124 11 117 q 105 142 64 131 q 199 165 146 153 q 307 190 251 178 q 417 212 363 203 q 519 225 472 221 q 637 231 589 231 q 715 229 685 232 q 762 221 746 226 q 783 210 778 215 q 804 200 794 210 q 814 179 814 190 q 791 152 803 156 q 768 149 779 149 q 715 154 749 153 q 643 155 688 156 q 535 149 599 154 q 376 124 464 142 q 208 88 288 107 q 22 40 115 65 z "},"J":{"ha":721,"x_min":-126,"x_max":985,"o":"m -3 739 q -28 743 -17 739 q -39 775 -39 747 q -35 801 -39 790 q -3 813 -31 813 q 28 827 -3 817 q 110 850 58 838 q 228 876 161 863 q 365 903 294 890 q 507 926 436 915 q 638 940 578 936 l 947 940 q 974 913 963 926 q 985 885 985 900 q 957 860 971 871 q 929 849 943 849 q 865 856 906 853 q 776 857 831 858 q 638 849 721 856 q 542 838 593 844 q 440 824 492 832 q 336 806 388 815 q 238 788 285 797 q 17 739 128 765 l -3 739 m 308 -83 q 215 -56 260 -83 q 130 17 171 -28 q 51 117 89 61 q -21 228 14 172 q -67 305 -49 269 q -112 356 -85 340 q -117 392 -126 369 q -93 428 -108 414 q -74 440 -93 442 q -39 410 -54 438 q 0 353 -25 382 q 51 283 25 324 q 110 186 79 235 q 174 98 142 138 q 240 33 206 58 q 308 8 274 8 q 372 33 336 8 q 436 99 408 58 q 467 210 464 140 q 458 365 471 279 q 421 543 446 450 q 366 724 396 636 q 306 888 336 811 q 253 1014 276 964 q 249 1048 240 1028 q 271 1068 257 1068 q 299 1073 285 1082 q 326 1050 313 1064 q 351 996 333 1036 q 393 897 369 956 q 443 767 417 839 q 493 615 469 694 q 533 456 517 536 q 555 299 550 375 q 549 158 560 224 q 508 44 539 92 q 408 -47 454 -11 q 308 -83 363 -83 z "},"K":{"ha":613,"x_min":-15,"x_max":697,"o":"m 124 -143 q 100 -132 111 -143 q 89 -108 89 -121 q 78 -43 83 -78 q 67 23 72 -14 q 54 100 61 60 q 57 203 54 131 q 63 368 60 276 q 72 559 67 460 q 80 743 76 658 q 86 886 83 828 q 89 953 89 944 q 100 977 89 967 q 124 988 111 988 q 148 977 138 988 q 158 953 158 967 q 150 575 154 747 q 147 428 149 501 q 144 292 146 354 q 142 183 143 229 q 142 118 142 138 q 144 34 142 72 q 150 -32 147 -4 q 158 -90 154 -65 q 163 -130 172 -117 q 142 -143 154 -143 l 124 -143 m 3 83 l -15 169 l 3 169 q 22 188 8 176 q 61 222 36 199 q 122 283 86 244 q 211 379 158 321 q 278 477 247 421 q 333 597 308 533 q 378 726 358 660 q 414 856 399 793 q 472 1161 450 1003 q 498 1185 485 1175 q 524 1196 511 1196 q 548 1183 538 1196 q 558 1144 558 1171 q 551 1094 558 1140 q 528 978 543 1049 q 489 820 513 908 q 433 642 465 732 q 358 470 400 553 q 263 326 315 388 q 228 285 250 300 q 193 257 207 271 q 269 264 232 257 q 332 257 306 271 q 433 247 385 257 q 507 222 481 236 q 553 209 533 215 q 592 198 574 203 q 626 190 610 193 q 663 188 643 188 q 687 176 676 188 q 697 153 697 165 q 687 113 697 126 q 663 100 676 100 q 576 111 624 100 q 489 135 529 122 q 411 159 450 149 q 332 169 372 169 q 240 169 286 176 q 152 148 193 161 q 81 121 111 135 q 38 100 50 107 q 19 85 24 88 q 3 83 15 83 z "},"L":{"ha":663,"x_min":39,"x_max":772,"o":"m 251 -53 l 199 -53 q 176 -17 199 -46 q 127 65 154 13 q 74 192 100 117 q 43 364 49 267 q 44 517 39 438 q 63 672 50 596 q 90 816 75 747 q 121 938 106 885 q 148 1023 136 990 q 164 1060 160 1056 q 177 1083 164 1072 q 217 1094 190 1094 q 231 1068 229 1081 q 233 1042 233 1056 q 223 1006 233 1038 q 199 924 213 975 q 169 808 185 874 q 141 667 153 742 q 125 515 129 593 q 129 364 121 438 q 175 153 143 233 q 233 35 207 74 q 314 87 260 61 q 460 139 368 113 q 561 164 513 158 q 650 167 610 169 q 738 156 696 164 q 761 130 750 143 q 772 104 772 117 q 746 80 758 90 q 719 69 733 69 q 646 82 683 78 q 574 83 614 85 q 494 69 533 82 q 383 28 428 50 q 308 -11 338 7 q 251 -53 274 -32 z "},"M":{"ha":1189,"x_min":-62,"x_max":1210,"o":"m 90 -4 q 65 6 78 -4 q 39 29 51 17 q 34 66 39 33 q 21 149 29 99 q 3 259 13 199 q -17 381 -7 319 q -34 497 -26 442 q -46 589 -42 551 l -62 725 l -46 760 q -12 790 -46 765 q 80 844 21 815 q 219 898 139 874 q 396 929 300 922 q 482 935 433 942 q 582 929 531 929 q 694 1014 633 981 q 819 1047 756 1047 q 978 1024 908 1047 q 1098 971 1049 1000 q 1175 918 1147 942 q 1210 894 1203 894 l 1210 861 q 1193 615 1200 732 q 1187 515 1190 565 q 1181 417 1183 464 q 1178 331 1179 371 q 1176 267 1176 292 l 1176 114 q 1165 76 1176 89 q 1142 64 1154 64 q 1119 76 1129 64 q 1108 114 1108 89 l 1108 267 q 1110 344 1108 296 q 1113 451 1111 393 q 1119 569 1115 508 q 1126 683 1122 629 q 1133 781 1129 738 q 1142 844 1138 824 q 1094 877 1122 857 q 1026 916 1065 897 q 935 949 986 935 q 819 963 883 963 q 743 944 781 963 q 667 913 706 925 q 714 900 692 906 q 751 889 736 894 q 786 878 769 883 l 803 810 q 786 787 799 806 q 755 743 774 768 q 711 692 736 718 q 658 646 686 665 q 597 619 629 626 q 531 624 564 611 q 478 656 493 624 q 464 725 464 688 q 489 785 476 751 q 514 844 501 818 q 463 859 489 857 q 413 861 438 861 q 273 828 336 849 q 160 785 210 807 q 76 742 111 763 q 22 708 42 721 l 22 589 q 31 527 25 564 q 45 447 38 490 q 62 358 53 404 q 79 268 71 313 q 124 47 100 164 q 113 15 124 33 q 90 -4 103 -4 m 599 844 q 561 778 574 806 q 549 725 549 751 l 549 692 q 588 693 567 685 q 631 719 610 701 q 670 760 651 736 q 701 810 689 785 q 663 826 688 822 q 599 844 638 831 z "},"N":{"ha":825,"x_min":-74,"x_max":850,"o":"m 817 -124 q 778 -119 790 -124 q 765 -89 765 -115 l 731 304 q 707 514 718 414 q 680 696 696 614 q 640 836 664 778 q 578 921 617 894 q 539 925 564 933 q 474 904 514 917 q 399 837 435 886 q 333 718 364 788 q 275 566 301 649 q 227 399 249 483 q 190 238 206 315 q 167 100 175 160 q 158 44 167 61 q 150 14 150 26 l 81 49 l 81 100 l 81 151 q 69 193 78 167 q 49 251 61 219 q 24 317 38 282 q -3 388 11 353 q -74 560 -35 468 q -69 599 -74 588 q -39 611 -65 611 q -14 617 -26 626 q 13 596 -1 607 q 51 486 33 542 q 84 385 67 439 q 115 288 101 332 q 147 423 128 351 q 188 565 165 494 q 239 703 211 636 q 299 826 267 769 q 366 926 331 883 q 440 989 401 968 q 539 1003 492 1003 q 610 989 586 1003 q 692 894 661 957 q 743 745 724 832 q 774 551 763 658 q 799 321 786 443 l 850 -89 q 840 -113 850 -103 q 817 -124 829 -124 z "},"O":{"ha":840,"x_min":-33,"x_max":849,"o":"m 351 -10 q 160 36 243 -10 q 15 167 76 82 q -31 367 -33 263 q 32 567 -29 471 q 101 664 56 628 q 208 711 147 700 l 288 711 q 383 904 335 831 q 460 944 419 940 q 560 936 500 947 q 666 862 614 911 q 758 747 718 813 q 824 601 799 681 q 849 439 849 522 q 737 112 849 221 q 383 -10 625 3 l 351 -10 m 256 631 l 224 631 q 147 595 175 619 q 96 535 119 571 q 45 369 47 450 q 79 214 43 288 q 208 94 128 131 q 383 71 288 58 q 565 101 492 76 q 686 170 639 125 q 756 282 733 215 q 785 439 778 349 q 760 585 785 517 q 699 707 736 653 q 615 799 661 761 q 528 856 569 838 q 511 867 522 861 q 488 874 500 872 q 465 872 476 875 q 449 856 454 868 q 402 788 425 832 q 368 696 379 744 q 448 656 410 678 q 516 613 486 633 q 566 580 546 593 q 592 567 586 567 q 604 535 604 556 q 592 503 604 515 q 544 503 568 479 q 485 547 517 526 q 422 584 457 565 q 351 615 388 603 q 330 475 340 543 q 319 358 319 407 q 310 337 319 347 q 288 326 300 326 q 266 337 276 326 q 256 358 256 347 q 256 390 256 364 q 258 453 256 415 q 263 536 260 490 q 272 631 265 582 l 256 631 z "},"P":{"ha":567,"x_min":-126,"x_max":678,"o":"m 183 -19 q 152 -11 163 -19 q 142 8 142 -3 l 114 178 q 102 282 107 219 q 94 415 97 344 q 88 555 90 485 q 85 683 86 625 q 85 781 85 742 q 85 828 85 821 q 94 847 85 838 q 114 856 103 856 q 145 847 135 856 q 156 828 156 838 q 156 786 156 824 q 156 690 156 749 q 159 562 157 632 q 164 422 161 492 q 172 292 167 353 q 183 192 176 231 l 211 24 q 203 2 211 13 q 183 -19 194 -8 m -99 -90 q -117 -81 -108 -90 q -126 -62 -126 -72 q -117 -41 -126 -51 q -99 -19 -108 -31 q -63 -13 -94 -19 q 15 2 -32 -7 q 121 22 63 11 q 235 40 179 32 q 342 51 292 47 q 424 51 392 56 q 506 40 465 46 q 579 30 547 35 q 631 19 611 25 q 650 8 650 14 q 674 0 671 8 q 678 -19 678 -8 q 667 -44 678 -40 q 635 -47 656 -47 q 564 -33 600 -39 q 492 -24 532 -28 q 410 -19 451 -19 q 352 -18 389 -17 q 269 -25 315 -19 q 174 -39 224 -31 q 76 -56 124 -47 q -14 -74 28 -65 q -83 -90 -56 -83 l -99 -90 m 282 278 q 235 293 261 278 q 183 338 210 308 q 131 408 157 367 q 85 503 106 450 q 94 534 85 524 q 114 544 103 544 q 135 549 125 556 q 156 531 144 542 q 192 449 172 483 q 230 391 211 414 q 263 357 249 368 q 282 346 278 346 q 313 364 296 349 q 348 406 328 378 q 396 488 368 435 q 434 580 417 525 q 460 692 451 635 q 469 800 469 749 q 451 883 468 851 q 443 896 451 894 q 424 897 435 897 q 337 883 386 903 q 237 832 288 863 q 142 768 186 801 q 71 714 97 735 q 56 715 63 714 q 42 719 49 717 q 29 729 35 722 q 25 749 18 739 q 43 769 32 760 q 60 790 43 774 q 108 828 78 806 q 176 874 138 850 q 256 919 214 899 q 342 954 299 940 q 424 968 385 968 q 476 956 456 968 q 508 911 497 943 q 531 807 529 869 q 522 680 532 744 q 492 556 511 615 q 451 460 472 497 q 356 321 399 364 q 282 278 314 278 z "},"Q":{"ha":831,"x_min":-39,"x_max":983,"o":"m 272 14 q 116 58 186 14 q -3 175 46 103 q -30 254 -21 213 q -35 338 -39 296 q -17 422 -32 381 q 29 501 -1 464 q 162 602 92 574 q 306 631 232 631 q 332 706 318 668 q 371 792 346 743 q 456 917 407 878 q 565 956 504 956 q 620 944 590 956 q 682 900 650 932 q 747 811 714 868 q 810 663 779 754 q 838 485 846 576 q 793 322 829 394 q 702 203 757 256 q 586 115 647 151 q 465 56 525 78 q 356 29 404 35 q 314 16 331 18 q 272 14 297 14 m 272 549 q 177 533 224 549 q 94 468 131 517 q 36 332 46 394 q 63 208 26 269 q 110 154 81 178 q 176 115 139 131 q 253 94 213 100 q 338 94 294 89 q 442 128 386 107 q 551 182 497 150 q 651 257 604 214 q 729 354 697 300 q 767 489 765 417 q 744 647 768 561 q 649 815 696 756 q 565 875 601 875 q 494 849 529 875 q 436 761 460 822 q 386 615 411 686 q 479 585 435 603 q 557 553 524 568 q 631 517 596 535 q 651 492 642 506 q 646 468 660 479 q 628 448 646 456 q 597 451 610 440 q 526 486 563 471 q 454 513 494 500 q 371 533 414 526 q 349 435 360 471 q 338 388 338 399 q 328 365 338 375 q 306 354 318 354 q 283 367 293 354 q 272 403 272 379 q 274 446 271 422 q 289 549 275 485 l 272 549 m 939 -100 q 924 -92 928 -100 q 906 -85 919 -85 q 856 -32 900 -72 q 744 65 811 8 q 596 188 676 121 q 436 322 515 256 q 436 371 411 346 q 459 391 447 383 q 485 388 471 399 q 546 337 504 371 q 639 260 588 303 q 746 170 690 217 q 849 82 801 124 q 929 9 896 40 q 971 -35 963 -22 q 981 -59 983 -47 q 954 -85 979 -71 q 953 -93 954 -89 q 939 -100 950 -100 z "},"R":{"ha":760,"x_min":-17,"x_max":844,"o":"m 261 -292 q 238 -281 249 -292 q 226 -257 226 -269 l 138 679 q 149 703 138 693 q 174 714 160 714 q 197 703 186 714 q 208 679 208 693 l 314 -239 q 303 -272 314 -253 q 279 -292 293 -292 l 261 -292 m 808 290 l 792 290 q 553 377 658 357 q 368 397 447 397 q 352 395 354 397 q 350 379 350 393 q 236 324 283 339 q 158 306 189 308 q 109 312 126 304 q 85 326 92 319 l 68 379 q 91 401 74 386 q 140 432 108 415 q 218 463 171 449 q 332 485 265 478 q 403 560 367 515 q 472 657 439 606 q 533 761 504 708 q 581 860 561 814 q 609 943 600 907 q 614 997 618 979 l 597 979 q 522 949 567 975 q 428 885 478 924 q 324 800 378 846 q 219 708 269 754 q 125 622 169 663 q 50 556 81 582 q 29 558 39 556 q 13 564 21 561 q -3 574 4 567 q -17 593 -17 574 q -3 626 -17 613 q 46 669 10 635 q 132 749 82 703 q 242 847 182 794 q 362 945 301 899 q 478 1025 422 992 q 579 1068 535 1058 q 625 1069 606 1075 q 658 1056 644 1064 q 685 1032 674 1046 q 681 924 699 992 q 628 779 664 857 q 541 623 592 701 q 438 485 490 544 q 613 442 518 471 q 826 361 707 414 q 842 348 840 361 q 844 308 844 335 q 833 292 844 294 q 808 290 822 290 z "},"S":{"ha":729,"x_min":-40,"x_max":726,"o":"m 439 -12 q 340 17 385 -7 q 260 72 294 42 q 201 133 225 103 q 167 182 178 163 l 150 199 q 108 259 138 217 q 49 346 79 301 q -28 457 13 397 q -40 488 -40 468 q -28 521 -40 508 q 4 519 -15 521 q 36 504 24 517 q 73 442 49 481 q 124 363 97 403 q 176 291 151 324 q 214 246 201 258 q 215 238 213 242 q 231 229 218 229 q 262 184 242 211 q 309 131 282 157 q 369 87 336 106 q 439 68 403 68 q 476 70 457 68 q 513 78 494 72 q 549 97 531 85 q 585 132 567 110 q 644 228 626 183 q 650 310 663 274 q 554 403 625 358 q 375 471 483 447 q 210 542 279 496 q 117 649 142 588 q 117 757 104 699 q 167 876 129 815 q 242 947 199 924 q 333 978 286 971 q 426 978 379 985 q 510 961 472 972 q 572 939 547 950 q 600 924 596 928 q 612 918 606 924 q 621 905 618 913 q 623 890 624 897 q 617 876 622 882 q 599 862 617 864 q 569 860 582 860 q 436 899 500 890 q 380 902 408 903 q 324 894 351 901 q 273 870 297 886 q 231 826 249 854 q 187 742 193 778 q 181 682 181 707 q 256 605 206 633 q 392 551 306 576 q 486 524 435 540 q 584 481 538 507 q 667 418 631 456 q 714 326 703 381 q 710 218 726 278 q 633 85 694 158 q 439 -12 536 -12 z "},"T":{"ha":681,"x_min":-194,"x_max":763,"o":"m 358 -89 q 336 -78 346 -89 q 326 -56 326 -67 q 300 103 311 31 q 291 165 296 133 q 283 222 286 196 q 277 269 279 249 q 275 300 275 290 q 264 363 269 313 q 253 481 258 413 q 242 628 247 550 q 232 776 236 707 q 225 894 228 844 q 222 957 222 944 q 220 995 210 983 q 256 1007 231 1007 q 280 997 271 1007 q 289 974 289 988 q 299 840 293 911 q 311 699 306 769 q 322 563 317 629 q 332 445 328 497 q 339 358 336 393 q 342 315 342 324 q 356 240 349 296 q 372 121 364 183 q 392 -37 381 49 q 388 -76 392 -62 q 358 -89 383 -89 m -147 839 q -171 841 -161 839 q -181 857 -181 843 q -185 895 -194 882 q -165 908 -176 908 q -126 922 -161 913 q -37 945 -90 932 q 83 973 17 958 q 215 999 149 988 q 341 1019 281 1011 q 443 1026 401 1026 q 567 1016 514 1019 q 657 1010 621 1013 q 729 1007 700 1007 q 753 995 743 1007 q 763 957 763 983 q 753 935 763 946 q 729 924 743 924 q 650 932 694 928 q 560 938 613 935 q 443 942 507 942 q 342 934 401 942 q 219 915 283 926 q 90 890 154 904 q -25 865 26 876 q -110 847 -76 854 q -147 839 -143 839 z "},"D":{"ha":960,"x_min":-139,"x_max":989,"o":"m 331 85 q 309 95 319 85 q 299 117 299 106 l 236 758 q 247 793 236 782 q 268 804 257 804 q 303 795 292 804 q 315 774 315 786 l 363 132 q 352 97 363 108 q 331 85 342 85 m 565 7 q 449 15 513 7 q 322 40 385 24 q 202 79 258 56 q 111 132 146 103 q 38 201 64 168 q 1 261 13 233 q -14 321 -12 292 q -4 356 -14 344 q 17 367 6 367 q 65 321 65 367 q 76 286 67 306 q 103 247 85 269 q 158 194 122 224 q 256 140 193 165 q 391 99 319 115 q 534 77 463 82 q 658 85 606 72 q 733 129 700 97 q 792 204 765 161 q 839 294 818 247 q 878 382 860 340 q 896 427 883 394 q 915 503 908 460 q 919 598 922 547 q 894 694 917 649 q 816 799 871 754 q 690 868 761 844 q 563 874 629 885 q 432 833 497 863 q 303 759 367 803 q 184 666 240 715 q 80 567 128 617 q -3 478 32 518 q -57 411 -37 438 q -76 382 -76 385 q -124 382 -100 360 q -137 406 -135 394 q -139 429 -139 418 q -90 485 -131 438 q 14 598 -50 533 q 160 733 78 663 q 334 856 243 803 q 520 934 425 910 q 706 931 615 958 q 860 858 800 907 q 956 726 921 810 q 982 645 975 688 q 987 563 989 603 q 977 485 985 522 q 962 419 969 447 q 947 372 954 390 q 940 351 940 354 q 899 251 924 304 q 842 151 875 199 q 768 69 810 104 q 675 22 726 33 q 626 9 651 11 q 565 7 601 7 z "},"U":{"ha":711,"x_min":-39,"x_max":735,"o":"m 347 -10 l 275 -10 q 142 65 196 4 q 54 209 89 125 q 1 389 19 293 q -27 570 -18 485 q -37 719 -36 656 q -39 801 -39 782 q -28 842 -39 829 q -1 856 -17 856 l 17 856 q 42 842 31 856 q 53 801 53 829 q 55 687 53 756 q 65 541 57 618 q 87 386 72 464 q 126 244 101 308 q 188 135 151 179 q 275 82 224 92 q 408 82 344 68 q 514 138 472 96 q 613 299 583 193 q 643 543 643 404 l 643 911 q 697 967 643 967 q 724 953 713 967 q 735 911 735 939 l 735 543 q 694 269 735 390 q 568 64 653 147 q 521 29 547 43 q 465 6 494 15 q 406 -6 436 -3 q 347 -10 375 -10 z "},"V":{"ha":592,"x_min":-67,"x_max":615,"o":"m 351 -28 l 235 72 q 173 144 206 97 q 108 245 140 190 q 47 359 76 300 q -7 469 17 418 q -47 558 -31 521 q -67 608 -62 596 q -62 633 -67 621 q -33 658 -58 646 q -8 654 -21 658 q 17 625 4 650 q 42 559 25 600 q 83 469 60 518 q 132 369 106 421 q 185 273 158 318 q 238 192 213 228 q 285 139 264 156 l 351 89 q 374 212 360 135 q 407 380 389 289 q 444 568 425 471 q 481 753 463 665 q 513 908 499 840 q 536 1010 528 976 q 549 1033 536 1022 q 586 1043 561 1043 q 607 1018 599 1031 q 603 993 615 1006 q 585 902 596 961 q 559 768 574 843 q 528 607 544 693 q 497 436 513 521 q 418 6 461 238 l 351 -28 z "},"W":{"ha":846,"x_min":-10,"x_max":861,"o":"m 143 -4 l 58 14 l -10 592 q 1 617 -10 606 q 24 628 13 628 q 48 630 38 640 q 58 592 58 619 l 128 185 l 314 729 l 382 729 l 757 167 q 755 126 757 142 q 742 97 753 111 q 715 99 728 97 q 690 115 703 101 l 365 628 l 143 -4 m 724 29 q 688 42 699 29 q 690 81 676 56 l 775 1003 q 788 1026 775 1015 q 826 1038 801 1038 q 850 1018 839 1038 q 861 986 861 999 l 757 64 q 747 40 757 51 q 724 29 738 29 z "},"X":{"ha":732,"x_min":-65,"x_max":1006,"o":"m 53 -49 q 35 -47 39 -49 q 18 -31 31 -44 q 4 -11 4 -31 q 18 21 4 8 q 57 85 28 38 q 127 202 86 133 q 218 353 168 271 q 322 520 268 435 q 428 688 375 606 q 526 839 481 771 q 608 954 572 907 q 664 1018 644 1001 q 718 1018 690 1044 q 718 965 743 993 q 662 892 700 947 q 571 758 624 838 q 456 579 518 678 q 329 376 393 481 q 203 166 265 271 q 89 -31 140 61 q 76 -34 82 -31 q 64 -40 69 -37 q 53 -49 58 -44 m 944 74 l 942 82 q 937 88 939 85 q 928 92 935 92 l 804 178 q 694 235 769 200 q 528 308 619 269 q 339 387 436 347 q 160 458 242 426 q 24 509 78 489 q -35 529 -31 529 q -56 555 -47 543 q -51 581 -65 567 q -32 606 -51 594 q 0 617 -12 617 q 35 599 3 614 q 119 564 68 585 q 237 516 171 543 q 374 459 303 489 q 517 399 446 429 q 652 340 589 368 q 765 289 715 313 q 840 249 814 265 l 981 161 q 981 110 1006 135 q 969 85 981 96 q 944 74 958 74 z "},"Y":{"ha":711,"x_min":-74,"x_max":1053,"o":"m 343 457 l -50 821 q -50 867 -74 844 q -28 880 -39 878 q -6 882 -17 882 l 374 532 q 417 593 389 556 q 478 674 444 631 q 551 765 513 718 q 624 852 589 811 q 690 925 660 893 q 739 972 719 957 q 785 972 761 997 q 796 944 796 961 q 785 928 796 928 q 736 881 765 913 q 672 809 707 850 q 600 721 638 768 q 526 626 563 674 q 458 535 490 579 q 404 457 426 490 l 343 457 m 390 -121 q 369 -111 378 -121 q 360 -90 360 -101 l 360 61 q 346 122 360 96 q 297 182 332 149 q 275 228 286 206 q 253 275 264 251 q 230 343 229 310 q 244 406 231 376 q 282 460 258 436 q 329 501 306 485 q 374 501 351 528 q 386 474 386 490 q 374 457 386 457 q 358 435 374 450 q 326 398 342 419 q 303 352 310 376 q 314 306 296 328 q 336 267 325 282 q 360 229 347 253 q 384 194 371 211 q 408 156 397 176 q 427 113 419 136 q 435 61 435 90 l 435 -90 q 424 -111 435 -101 q 390 -121 414 -121 m 54 -90 q 33 -83 43 -90 q 24 -75 28 -79 q 20 -39 13 -51 q 40 -14 28 -26 q 92 3 47 -11 q 202 34 136 17 q 348 70 268 51 q 506 103 428 89 q 654 123 585 117 q 769 122 724 129 q 886 90 838 111 q 967 50 935 69 q 1026 0 1003 26 q 1026 -44 1053 -22 q 999 -56 1015 -56 q 982 -44 982 -56 q 931 -10 963 -26 q 860 21 903 6 q 754 47 817 36 q 653 49 717 54 q 517 28 590 43 q 367 -5 443 14 q 228 -41 292 -24 q 122 -72 165 -58 q 71 -90 78 -86 l 54 -90 z "},"Z":{"ha":735,"x_min":-69,"x_max":967,"o":"m 929 -57 l 908 -57 l 717 -37 q 633 -27 681 -31 q 531 -22 585 -24 q 420 -22 476 -21 q 310 -24 364 -22 q 46 -37 182 -28 l 7 40 l 640 826 q 474 872 554 860 q 322 881 393 883 q 192 867 251 879 q 89 842 133 856 q 18 818 44 829 q -12 807 -8 807 q -41 809 -28 807 q -69 826 -54 811 q -67 872 -69 854 q -50 904 -65 889 q -14 916 -46 904 q 72 942 18 928 q 199 969 126 957 q 358 981 272 981 q 540 964 443 981 q 738 904 636 947 l 757 826 l 142 58 q 278 69 200 65 q 440 72 357 72 q 601 69 522 72 q 738 58 679 65 l 929 40 q 956 10 944 25 q 967 -19 967 -4 q 956 -45 967 -33 q 929 -57 944 -57 z "},"a":{"ha":903,"x_min":1,"x_max":1006,"o":"m 72 7 l 3 42 q 22 135 1 83 q 83 238 40 179 q 211 369 126 297 q 291 422 250 408 q 385 421 332 436 q 446 409 417 421 q 501 378 475 397 q 550 333 528 358 q 592 283 572 308 l 592 492 q 592 563 597 518 q 572 653 586 607 q 535 741 557 700 q 486 801 513 782 q 401 844 454 828 q 290 871 347 861 q 183 885 233 881 q 107 889 133 889 q 83 899 94 889 q 72 922 72 910 q 83 947 72 936 q 107 957 94 957 q 136 956 111 957 q 199 953 161 956 q 284 947 238 951 q 378 932 331 942 q 467 907 425 922 q 540 871 510 892 q 598 792 572 844 q 641 679 624 739 q 668 563 658 619 q 678 472 678 506 q 668 435 671 460 q 663 381 665 411 q 661 315 661 350 q 661 249 661 281 q 803 247 726 249 q 971 232 879 244 q 995 213 985 232 q 1006 179 1006 193 q 980 156 993 167 q 954 144 967 144 q 801 163 875 158 q 661 179 726 167 l 661 144 l 592 128 q 574 151 578 140 q 557 163 569 163 q 335 131 426 156 q 185 78 243 106 q 72 7 117 46 m 349 351 q 299 341 322 351 q 263 318 275 331 q 207 267 231 292 q 165 219 183 242 q 133 176 147 196 q 107 144 119 157 q 178 173 139 157 q 267 203 218 189 q 374 230 315 218 q 506 249 433 242 q 442 313 479 288 q 365 351 406 339 l 349 351 z "},"b":{"ha":639,"x_min":-29,"x_max":664,"o":"m 214 35 q 189 45 201 35 q 163 68 176 56 l 82 708 q 92 731 82 721 q 114 740 103 740 q 139 736 126 740 q 163 708 151 732 l 246 86 q 235 47 246 60 q 214 35 225 35 m 442 3 q 313 31 374 3 q 203 93 251 58 q 99 183 147 132 q 86 216 86 194 q 99 250 86 238 q 147 250 122 274 q 239 168 190 204 q 333 111 281 136 q 442 86 386 86 q 488 97 467 86 q 526 124 510 107 q 555 160 543 140 q 574 199 567 181 q 575 232 574 211 q 573 276 576 253 q 559 322 569 299 q 525 364 549 344 q 456 378 500 376 q 376 381 413 381 q 288 317 328 338 q 221 290 249 296 q 178 288 193 283 q 163 299 163 292 l 147 364 q 171 372 153 364 q 215 392 189 381 q 274 419 240 404 q 344 446 307 433 q 406 536 375 476 q 463 663 438 596 q 501 797 488 731 q 508 904 514 863 q 498 943 508 931 q 476 956 488 956 q 402 934 451 961 q 293 859 353 907 q 169 749 233 811 q 50 625 106 688 q 15 606 36 614 q -17 610 -6 597 q -29 642 -29 621 q -17 676 -29 664 q 35 728 0 692 q 117 809 71 765 q 216 897 163 853 q 322 974 269 942 q 424 1022 375 1007 q 508 1019 472 1036 q 553 995 532 1019 q 574 922 574 971 q 578 820 586 879 q 551 698 571 761 q 502 573 532 635 q 442 461 472 511 q 508 451 479 461 q 574 429 538 442 q 644 319 624 381 q 640 183 664 258 q 560 49 615 96 q 442 3 504 3 z "},"c":{"ha":897,"x_min":-1,"x_max":1028,"o":"m 583 10 q 482 21 539 10 q 346 54 425 32 q 200 125 260 81 q 101 224 140 169 q 40 338 61 279 q 8 451 18 396 q -1 550 -1 506 q 3 621 -1 594 q 71 833 25 757 q 196 919 117 908 q 267 923 218 926 q 378 909 317 919 q 505 884 439 899 q 628 856 571 869 q 727 831 686 842 q 779 815 768 819 q 805 806 801 815 q 808 786 808 797 q 792 754 808 764 q 764 757 775 744 q 610 792 696 774 q 442 824 524 810 q 297 844 361 838 q 211 846 233 851 q 121 783 154 846 q 76 606 88 719 q 67 546 69 583 q 71 462 64 508 q 96 365 78 415 q 148 268 114 315 q 234 181 182 221 q 361 114 286 140 q 530 80 467 86 q 632 88 593 74 q 695 135 671 101 q 747 218 719 168 l 764 247 q 831 367 797 304 q 893 482 865 429 q 957 606 926 544 q 979 619 968 617 q 1001 621 990 621 q 1020 599 1013 610 q 1017 576 1028 588 q 999 535 1017 571 q 953 446 982 499 q 891 329 925 393 q 824 203 857 265 l 808 189 q 764 117 785 150 q 718 60 743 85 q 660 23 693 36 q 583 10 628 10 z "},"d":{"ha":946,"x_min":-139,"x_max":989,"o":"m 331 85 q 309 95 319 85 q 299 117 299 106 l 236 758 q 247 793 236 782 q 268 804 257 804 q 303 795 292 804 q 315 774 315 786 l 363 132 q 352 97 363 108 q 331 85 342 85 m 565 7 q 449 15 513 7 q 322 40 385 24 q 202 79 258 56 q 111 132 146 103 q 38 201 64 168 q 1 261 13 233 q -14 321 -12 292 q -4 356 -14 344 q 17 367 6 367 q 65 321 65 367 q 76 286 67 306 q 103 247 85 269 q 158 194 122 224 q 256 140 193 165 q 391 99 319 115 q 534 77 463 82 q 658 85 606 72 q 733 129 700 97 q 792 204 765 161 q 839 294 818 247 q 878 382 860 340 q 896 427 883 394 q 915 503 908 460 q 919 598 922 547 q 894 694 917 649 q 816 799 871 754 q 690 868 761 844 q 563 874 629 885 q 432 833 497 863 q 303 759 367 803 q 184 666 240 715 q 80 567 128 617 q -3 478 32 518 q -57 411 -37 438 q -76 382 -76 385 q -124 382 -100 360 q -137 406 -135 394 q -139 429 -139 418 q -90 485 -131 438 q 14 598 -50 533 q 160 733 78 663 q 334 856 243 803 q 520 934 425 910 q 706 931 615 958 q 860 858 800 907 q 956 726 921 810 q 982 645 975 688 q 987 563 989 603 q 977 485 985 522 q 962 419 969 447 q 947 372 954 390 q 940 351 940 354 q 899 251 924 304 q 842 151 875 199 q 768 69 810 104 q 675 22 726 33 q 626 9 651 11 q 565 7 601 7 z "},"e":{"ha":610,"x_min":-12,"x_max":654,"o":"m 222 13 l 189 13 q 150 75 169 35 q 113 167 133 110 q 74 311 93 224 q 74 561 46 461 l 74 576 q 35 623 54 594 q 3 689 15 651 q -11 774 -10 726 q 7 876 -12 821 q 44 962 19 926 q 107 1008 68 997 q 199 1041 149 1033 q 301 1044 249 1049 q 403 1028 353 1040 q 492 1003 453 1017 q 558 976 532 989 q 589 960 585 964 q 600 954 594 960 q 609 940 606 949 q 612 924 613 932 q 604 910 611 915 q 585 895 604 897 q 556 893 567 893 q 509 913 539 901 q 443 935 479 924 q 365 955 407 946 q 283 967 324 964 q 206 965 243 969 q 139 943 168 960 q 101 907 115 929 q 74 860 86 885 q 71 745 60 797 q 107 644 82 693 q 124 660 119 656 q 139 678 128 664 q 222 736 176 715 q 306 743 268 757 q 352 732 331 743 q 389 702 374 721 q 413 660 404 683 q 422 611 422 636 q 414 562 422 586 q 392 517 406 538 q 360 482 378 497 q 324 461 342 467 q 238 474 285 461 q 139 511 190 486 q 128 426 128 474 q 139 328 128 378 q 188 161 164 215 q 222 96 211 107 q 277 99 243 96 q 351 105 311 101 q 432 113 390 108 q 509 120 474 117 q 570 126 544 124 q 604 129 596 129 q 642 118 629 129 q 654 96 654 107 q 642 73 654 83 q 604 63 629 63 q 549 57 592 63 q 451 44 507 51 q 333 27 394 36 q 222 13 272 18 m 172 594 q 245 549 210 556 q 306 543 281 543 q 335 564 331 543 q 339 611 339 585 q 338 625 339 617 q 333 643 338 633 q 317 662 328 653 q 289 678 307 671 q 189 626 240 678 q 181 604 189 615 q 172 594 176 599 z "},"f":{"ha":660,"x_min":-83,"x_max":708,"o":"m 272 -19 q 249 -17 260 -19 q 239 -3 239 -15 q 211 79 231 17 q 169 227 192 142 q 126 410 147 313 q 94 601 106 508 q 84 769 82 693 q 110 885 86 844 q 174 960 131 933 q 273 1000 218 988 q 388 1013 328 1013 q 498 1007 447 1013 q 584 994 549 1001 q 628 982 619 986 q 647 976 640 982 q 656 963 653 971 q 659 948 658 956 q 660 935 660 940 q 648 912 660 922 q 611 901 636 901 q 549 917 588 910 q 467 928 511 925 q 376 931 422 932 q 288 923 329 931 q 217 898 247 915 q 175 853 188 881 q 156 770 158 824 q 162 647 154 717 q 185 495 169 576 q 221 332 201 414 q 263 172 240 250 q 306 29 285 93 q 305 15 306 24 q 301 -1 304 7 q 292 -14 299 -8 q 272 -19 285 -19 m -50 256 q -73 265 -62 256 q -83 288 -83 275 q -79 311 -83 299 q -50 336 -75 324 q -6 343 -46 336 q 95 361 33 350 q 234 385 157 372 q 390 408 311 397 q 544 426 469 419 q 675 433 619 433 q 698 421 688 433 q 708 383 708 408 q 698 363 708 372 q 675 353 688 353 q 580 349 633 353 q 469 338 526 344 q 351 322 411 331 q 236 304 292 313 q -35 256 104 282 l -50 256 z "},"g":{"ha":753,"x_min":-65,"x_max":775,"o":"m 417 -86 q 343 -73 386 -86 q 253 -39 300 -60 q 157 8 206 -18 q 67 58 108 33 q -6 103 25 82 q -51 133 -37 124 q -62 154 -61 144 q -64 175 -64 164 q -37 192 -54 185 q -8 188 -19 199 q 108 113 43 151 q 235 44 174 75 q 347 -4 297 14 q 417 -17 396 -22 q 483 7 453 -12 q 540 58 513 26 q 593 129 567 89 q 650 217 619 169 q 676 281 665 238 q 695 383 688 325 q 708 508 703 442 q 718 642 714 575 q 678 560 699 578 q 644 474 667 524 q 576 380 621 425 q 460 303 532 335 q 281 272 389 272 q 165 298 218 272 q 68 364 111 324 q -5 456 25 404 q -51 560 -35 507 q -63 641 -61 601 q -58 715 -65 681 q -31 778 -50 750 q 18 821 -12 806 q 119 855 60 849 q 247 855 179 861 q 383 833 314 849 q 509 800 451 817 q 608 769 567 783 q 664 753 650 756 q 671 751 667 753 q 678 738 678 747 q 696 806 689 774 q 708 864 703 839 q 718 917 714 892 l 774 917 q 774 848 774 900 q 774 725 775 796 q 770 572 774 654 q 759 413 767 490 q 739 273 751 336 q 706 175 726 210 q 640 80 669 124 q 578 3 610 36 q 512 -53 547 -31 q 429 -86 476 -76 l 417 -86 m 169 793 q 103 790 139 793 q 46 765 67 786 q 2 679 6 733 q 18 572 -1 625 q 53 484 28 526 q 113 410 78 442 q 190 358 147 378 q 281 339 233 339 q 431 364 372 339 q 528 425 490 389 q 586 501 565 461 q 622 572 607 542 q 643 623 633 594 q 664 683 653 651 q 650 685 653 683 q 636 697 647 686 q 552 723 606 707 q 434 755 499 739 q 300 782 369 771 q 169 793 231 793 z "},"h":{"ha":603,"x_min":-43,"x_max":672,"o":"m 89 -14 q 69 -10 78 -14 q 60 15 60 -7 q 54 63 56 33 q 53 126 53 88 q 60 221 53 165 q 64 285 63 246 q 66 370 65 324 q 66 469 67 417 q 65 571 65 521 q 60 822 64 688 q 69 842 60 833 q 89 851 78 851 q 117 842 100 851 q 133 822 133 833 l 133 221 q 126 126 126 165 q 128 63 126 88 q 133 15 129 33 q 124 -5 133 4 q 104 -14 115 -14 l 89 -14 m 471 -87 q 449 -78 460 -87 q 426 -58 438 -69 q 424 -21 426 -53 q 421 55 422 11 q 420 147 419 99 q 426 235 421 196 q 437 300 432 254 q 447 408 442 346 q 458 544 453 471 q 467 692 463 618 q 485 1071 476 864 q 501 1092 485 1082 q 529 1101 518 1101 q 549 1092 540 1101 q 558 1071 558 1082 q 556 1031 558 1065 q 551 942 554 996 q 543 819 547 888 q 534 678 539 751 q 524 533 529 606 q 515 399 519 461 q 506 290 510 336 q 500 221 503 243 q 493 142 493 188 q 494 56 493 96 q 500 -43 496 7 q 491 -76 500 -65 q 471 -87 482 -87 m -14 529 q -34 538 -25 529 q -43 558 -43 547 q -40 585 -43 569 q -14 601 -36 601 q 18 607 -10 601 q 89 620 46 613 q 185 637 132 628 q 290 652 238 646 q 390 661 343 658 q 471 661 438 664 q 549 645 514 656 q 610 624 585 635 q 648 603 635 613 q 661 588 661 593 q 672 571 672 588 q 661 543 672 554 q 644 532 661 532 q 617 543 628 532 q 575 567 600 556 q 524 586 554 576 q 456 601 494 596 q 360 594 422 601 q 228 576 297 588 q 97 553 160 565 q 1 529 35 540 l -14 529 z "},"i":{"ha":628,"x_min":-133,"x_max":814,"o":"m 286 -69 q 265 -60 275 -69 q 256 -39 256 -50 q 253 11 256 -33 q 250 117 251 56 q 249 245 249 178 q 256 365 250 313 l 256 972 q 265 993 256 983 q 286 1003 275 1003 q 307 993 297 1003 q 317 972 317 983 q 318 927 317 964 q 320 835 319 890 q 322 715 321 781 q 324 585 324 650 q 322 462 324 519 q 317 365 321 404 l 317 -39 q 307 -60 317 -50 q 286 -69 297 -69 m -103 800 q -124 810 -114 800 q -133 832 -133 821 q -124 867 -133 856 q -103 878 -114 878 q -53 881 -96 878 q 49 890 -11 885 q 183 899 110 894 q 326 908 256 904 q 456 912 396 911 q 550 908 515 913 l 706 908 q 726 885 717 897 q 736 863 736 874 q 725 842 736 851 q 690 832 714 832 l 550 832 q 483 835 524 835 q 392 833 442 835 q 287 829 342 832 q 179 822 232 826 q -87 800 54 814 l -103 800 m 22 40 q -1 50 11 40 q -24 71 -12 60 q -14 99 -24 82 q 7 117 -4 117 q 38 124 11 117 q 105 142 64 131 q 199 165 146 153 q 307 190 251 178 q 417 212 363 203 q 519 225 472 221 q 637 231 589 231 q 715 229 685 232 q 762 221 746 226 q 783 210 778 215 q 804 200 794 210 q 814 179 814 190 q 791 152 803 156 q 768 149 779 149 q 715 154 749 153 q 643 155 688 156 q 535 149 599 154 q 376 124 464 142 q 208 88 288 107 q 22 40 115 65 z "},"j":{"ha":806,"x_min":-126,"x_max":985,"o":"m -3 739 q -28 743 -17 739 q -39 775 -39 747 q -35 801 -39 790 q -3 813 -31 813 q 28 827 -3 817 q 110 850 58 838 q 228 876 161 863 q 365 903 294 890 q 507 926 436 915 q 638 940 578 936 l 947 940 q 974 913 963 926 q 985 885 985 900 q 957 860 971 871 q 929 849 943 849 q 865 856 906 853 q 776 857 831 858 q 638 849 721 856 q 542 838 593 844 q 440 824 492 832 q 336 806 388 815 q 238 788 285 797 q 17 739 128 765 l -3 739 m 308 -83 q 215 -56 260 -83 q 130 17 171 -28 q 51 117 89 61 q -21 228 14 172 q -67 305 -49 269 q -112 356 -85 340 q -117 392 -126 369 q -93 428 -108 414 q -74 440 -93 442 q -39 410 -54 438 q 0 353 -25 382 q 51 283 25 324 q 110 186 79 235 q 174 98 142 138 q 240 33 206 58 q 308 8 274 8 q 372 33 336 8 q 436 99 408 58 q 467 210 464 140 q 458 365 471 279 q 421 543 446 450 q 366 724 396 636 q 306 888 336 811 q 253 1014 276 964 q 249 1048 240 1028 q 271 1068 257 1068 q 299 1073 285 1082 q 326 1050 313 1064 q 351 996 333 1036 q 393 897 369 956 q 443 767 417 839 q 493 615 469 694 q 533 456 517 536 q 555 299 550 375 q 549 158 560 224 q 508 44 539 92 q 408 -47 454 -11 q 308 -83 363 -83 z "},"k":{"ha":592,"x_min":-15,"x_max":697,"o":"m 124 -143 q 100 -132 111 -143 q 89 -108 89 -121 q 78 -43 83 -78 q 67 23 72 -14 q 54 100 61 60 q 57 203 54 131 q 63 368 60 276 q 72 559 67 460 q 80 743 76 658 q 86 886 83 828 q 89 953 89 944 q 100 977 89 967 q 124 988 111 988 q 148 977 138 988 q 158 953 158 967 q 150 575 154 747 q 147 428 149 501 q 144 292 146 354 q 142 183 143 229 q 142 118 142 138 q 144 34 142 72 q 150 -32 147 -4 q 158 -90 154 -65 q 163 -130 172 -117 q 142 -143 154 -143 l 124 -143 m 3 83 l -15 169 l 3 169 q 22 188 8 176 q 61 222 36 199 q 122 283 86 244 q 211 379 158 321 q 278 477 247 421 q 333 597 308 533 q 378 726 358 660 q 414 856 399 793 q 472 1161 450 1003 q 498 1185 485 1175 q 524 1196 511 1196 q 548 1183 538 1196 q 558 1144 558 1171 q 551 1094 558 1140 q 528 978 543 1049 q 489 820 513 908 q 433 642 465 732 q 358 470 400 553 q 263 326 315 388 q 228 285 250 300 q 193 257 207 271 q 269 264 232 257 q 332 257 306 271 q 433 247 385 257 q 507 222 481 236 q 553 209 533 215 q 592 198 574 203 q 626 190 610 193 q 663 188 643 188 q 687 176 676 188 q 697 153 697 165 q 687 113 697 126 q 663 100 676 100 q 576 111 624 100 q 489 135 529 122 q 411 159 450 149 q 332 169 372 169 q 240 169 286 176 q 152 148 193 161 q 81 121 111 135 q 38 100 50 107 q 19 85 24 88 q 3 83 15 83 z "},"l":{"ha":594,"x_min":39,"x_max":772,"o":"m 251 -53 l 199 -53 q 176 -17 199 -46 q 127 65 154 13 q 74 192 100 117 q 43 364 49 267 q 44 517 39 438 q 63 672 50 596 q 90 816 75 747 q 121 938 106 885 q 148 1023 136 990 q 164 1060 160 1056 q 177 1083 164 1072 q 217 1094 190 1094 q 231 1068 229 1081 q 233 1042 233 1056 q 223 1006 233 1038 q 199 924 213 975 q 169 808 185 874 q 141 667 153 742 q 125 515 129 593 q 129 364 121 438 q 175 153 143 233 q 233 35 207 74 q 314 87 260 61 q 460 139 368 113 q 561 164 513 158 q 650 167 610 169 q 738 156 696 164 q 761 130 750 143 q 772 104 772 117 q 746 80 758 90 q 719 69 733 69 q 646 82 683 78 q 574 83 614 85 q 494 69 533 82 q 383 28 428 50 q 308 -11 338 7 q 251 -53 274 -32 z "},"m":{"ha":1157,"x_min":-62,"x_max":1210,"o":"m 90 -4 q 65 6 78 -4 q 39 29 51 17 q 34 66 39 33 q 21 149 29 99 q 3 259 13 199 q -17 381 -7 319 q -34 497 -26 442 q -46 589 -42 551 l -62 725 l -46 760 q -12 790 -46 765 q 80 844 21 815 q 219 898 139 874 q 396 929 300 922 q 482 935 433 942 q 582 929 531 929 q 694 1014 633 981 q 819 1047 756 1047 q 978 1024 908 1047 q 1098 971 1049 1000 q 1175 918 1147 942 q 1210 894 1203 894 l 1210 861 q 1193 615 1200 732 q 1187 515 1190 565 q 1181 417 1183 464 q 1178 331 1179 371 q 1176 267 1176 292 l 1176 114 q 1165 76 1176 89 q 1142 64 1154 64 q 1119 76 1129 64 q 1108 114 1108 89 l 1108 267 q 1110 344 1108 296 q 1113 451 1111 393 q 1119 569 1115 508 q 1126 683 1122 629 q 1133 781 1129 738 q 1142 844 1138 824 q 1094 877 1122 857 q 1026 916 1065 897 q 935 949 986 935 q 819 963 883 963 q 743 944 781 963 q 667 913 706 925 q 714 900 692 906 q 751 889 736 894 q 786 878 769 883 l 803 810 q 786 787 799 806 q 755 743 774 768 q 711 692 736 718 q 658 646 686 665 q 597 619 629 626 q 531 624 564 611 q 478 656 493 624 q 464 725 464 688 q 489 785 476 751 q 514 844 501 818 q 463 859 489 857 q 413 861 438 861 q 273 828 336 849 q 160 785 210 807 q 76 742 111 763 q 22 708 42 721 l 22 589 q 31 527 25 564 q 45 447 38 490 q 62 358 53 404 q 79 268 71 313 q 124 47 100 164 q 113 15 124 33 q 90 -4 103 -4 m 599 844 q 561 778 574 806 q 549 725 549 751 l 549 692 q 588 693 567 685 q 631 719 610 701 q 670 760 651 736 q 701 810 689 785 q 663 826 688 822 q 599 844 638 831 z "},"n":{"ha":796,"x_min":-74,"x_max":850,"o":"m 817 -124 q 778 -119 790 -124 q 765 -89 765 -115 l 731 304 q 707 514 718 414 q 680 696 696 614 q 640 836 664 778 q 578 921 617 894 q 539 925 564 933 q 474 904 514 917 q 399 837 435 886 q 333 718 364 788 q 275 566 301 649 q 227 399 249 483 q 190 238 206 315 q 167 100 175 160 q 158 44 167 61 q 150 14 150 26 l 81 49 l 81 100 l 81 151 q 69 193 78 167 q 49 251 61 219 q 24 317 38 282 q -3 388 11 353 q -74 560 -35 468 q -69 599 -74 588 q -39 611 -65 611 q -14 617 -26 626 q 13 596 -1 607 q 51 486 33 542 q 84 385 67 439 q 115 288 101 332 q 147 423 128 351 q 188 565 165 494 q 239 703 211 636 q 299 826 267 769 q 366 926 331 883 q 440 989 401 968 q 539 1003 492 1003 q 610 989 586 1003 q 692 894 661 957 q 743 745 724 832 q 774 551 763 658 q 799 321 786 443 l 850 -89 q 840 -113 850 -103 q 817 -124 829 -124 z "},"o":{"ha":829,"x_min":-33,"x_max":849,"o":"m 351 -10 q 160 36 243 -10 q 15 167 76 82 q -31 367 -33 263 q 32 567 -29 471 q 101 664 56 628 q 208 711 147 700 l 288 711 q 383 904 335 831 q 460 944 419 940 q 560 936 500 947 q 666 862 614 911 q 758 747 718 813 q 824 601 799 681 q 849 439 849 522 q 737 112 849 221 q 383 -10 625 3 l 351 -10 m 256 631 l 224 631 q 147 595 175 619 q 96 535 119 571 q 45 369 47 450 q 79 214 43 288 q 208 94 128 131 q 383 71 288 58 q 565 101 492 76 q 686 170 639 125 q 756 282 733 215 q 785 439 778 349 q 760 585 785 517 q 699 707 736 653 q 615 799 661 761 q 528 856 569 838 q 511 867 522 861 q 488 874 500 872 q 465 872 476 875 q 449 856 454 868 q 402 788 425 832 q 368 696 379 744 q 448 656 410 678 q 516 613 486 633 q 566 580 546 593 q 592 567 586 567 q 604 535 604 556 q 592 503 604 515 q 544 503 568 479 q 485 547 517 526 q 422 584 457 565 q 351 615 388 603 q 330 475 340 543 q 319 358 319 407 q 310 337 319 347 q 288 326 300 326 q 266 337 276 326 q 256 358 256 347 q 256 390 256 364 q 258 453 256 415 q 263 536 260 490 q 272 631 265 582 l 256 631 z "},"p":{"ha":565,"x_min":-139,"x_max":665,"o":"m 171 -56 q 140 -47 150 -56 q 129 -28 129 -39 l 101 142 q 90 246 94 183 q 81 378 85 308 q 76 519 78 449 q 73 647 74 589 q 72 745 72 706 q 72 792 72 785 q 81 810 72 801 q 101 819 90 819 q 133 810 122 819 q 143 792 143 801 q 143 750 143 788 q 144 654 143 713 q 147 526 144 596 q 151 386 149 456 q 159 256 154 317 q 171 156 164 194 l 199 -12 q 190 -34 199 -24 q 171 -56 182 -44 m -111 -126 q -130 -117 -121 -126 q -139 -99 -139 -108 q -130 -77 -139 -87 q -111 -56 -121 -67 q -76 -49 -107 -56 q 3 -34 -44 -43 q 108 -15 50 -25 q 223 3 167 -4 q 329 15 279 11 q 411 15 379 19 q 494 4 453 10 q 567 -6 535 -1 q 618 -17 599 -11 q 638 -28 638 -22 q 662 -36 658 -28 q 665 -56 665 -44 q 654 -80 665 -76 q 622 -83 643 -83 q 551 -69 588 -75 q 479 -60 519 -64 q 397 -56 439 -56 q 340 -54 376 -53 q 257 -61 303 -56 q 161 -75 211 -67 q 63 -92 111 -83 q -26 -110 15 -101 q -96 -126 -68 -119 l -111 -126 m 269 242 q 223 257 249 242 q 171 301 197 272 q 119 372 144 331 q 72 467 93 414 q 81 498 72 488 q 101 508 90 508 q 122 513 113 519 q 143 494 132 506 q 179 413 160 447 q 217 355 199 378 q 251 321 236 332 q 269 310 265 310 q 300 328 283 313 q 335 370 315 342 q 383 451 356 399 q 422 544 404 489 q 448 656 439 599 q 456 764 457 713 q 439 847 456 815 q 431 860 439 858 q 411 861 422 861 q 324 847 374 867 q 224 796 275 826 q 129 732 174 765 q 58 678 85 699 q 43 679 50 678 q 29 683 36 681 q 17 693 22 686 q 13 713 6 703 q 31 733 19 724 q 48 753 31 738 q 95 792 65 769 q 163 838 125 814 q 244 883 201 863 q 329 918 286 904 q 411 932 372 932 q 464 919 443 932 q 496 875 485 907 q 518 771 517 833 q 509 644 519 708 q 479 520 499 579 q 439 424 460 461 q 344 285 386 328 q 269 242 301 242 z "},"q":{"ha":849,"x_min":-39,"x_max":983,"o":"m 272 14 q 116 58 186 14 q -3 175 46 103 q -30 254 -21 213 q -35 338 -39 296 q -17 422 -32 381 q 29 501 -1 464 q 162 602 92 574 q 306 631 232 631 q 332 706 318 668 q 371 792 346 743 q 456 917 407 878 q 565 956 504 956 q 620 944 590 956 q 682 900 650 932 q 747 811 714 868 q 810 663 779 754 q 838 485 846 576 q 793 322 829 394 q 702 203 757 256 q 586 115 647 151 q 465 56 525 78 q 356 29 404 35 q 314 16 331 18 q 272 14 297 14 m 272 549 q 177 533 224 549 q 94 468 131 517 q 36 332 46 394 q 63 208 26 269 q 110 154 81 178 q 176 115 139 131 q 253 94 213 100 q 338 94 294 89 q 442 128 386 107 q 551 182 497 150 q 651 257 604 214 q 729 354 697 300 q 767 489 765 417 q 744 647 768 561 q 649 815 696 756 q 565 875 601 875 q 494 849 529 875 q 436 761 460 822 q 386 615 411 686 q 479 585 435 603 q 557 553 524 568 q 631 517 596 535 q 651 492 642 506 q 646 468 660 479 q 628 448 646 456 q 597 451 610 440 q 526 486 563 471 q 454 513 494 500 q 371 533 414 526 q 349 435 360 471 q 338 388 338 399 q 328 365 338 375 q 306 354 318 354 q 283 367 293 354 q 272 403 272 379 q 274 446 271 422 q 289 549 275 485 l 272 549 m 939 -100 q 924 -92 928 -100 q 906 -85 919 -85 q 856 -32 900 -72 q 744 65 811 8 q 596 188 676 121 q 436 322 515 256 q 436 371 411 346 q 459 391 447 383 q 485 388 471 399 q 546 337 504 371 q 639 260 588 303 q 746 170 690 217 q 849 82 801 124 q 929 9 896 40 q 971 -35 963 -22 q 981 -59 983 -47 q 954 -85 979 -71 q 953 -93 954 -89 q 939 -100 950 -100 z "},"r":{"ha":724,"x_min":-17,"x_max":844,"o":"m 261 -292 q 238 -281 249 -292 q 226 -257 226 -269 l 138 679 q 149 703 138 693 q 174 714 160 714 q 197 703 186 714 q 208 679 208 693 l 314 -239 q 303 -272 314 -253 q 279 -292 293 -292 l 261 -292 m 808 290 l 792 290 q 553 377 658 357 q 368 397 447 397 q 352 395 354 397 q 350 379 350 393 q 236 324 283 339 q 158 306 189 308 q 109 312 126 304 q 85 326 92 319 l 68 379 q 91 401 74 386 q 140 432 108 415 q 218 463 171 449 q 332 485 265 478 q 403 560 367 515 q 472 657 439 606 q 533 761 504 708 q 581 860 561 814 q 609 943 600 907 q 614 997 618 979 l 597 979 q 522 949 567 975 q 428 885 478 924 q 324 800 378 846 q 219 708 269 754 q 125 622 169 663 q 50 556 81 582 q 29 558 39 556 q 13 564 21 561 q -3 574 4 567 q -17 593 -17 574 q -3 626 -17 613 q 46 669 10 635 q 132 749 82 703 q 242 847 182 794 q 362 945 301 899 q 478 1025 422 992 q 579 1068 535 1058 q 625 1069 606 1075 q 658 1056 644 1064 q 685 1032 674 1046 q 681 924 699 992 q 628 779 664 857 q 541 623 592 701 q 438 485 490 544 q 613 442 518 471 q 826 361 707 414 q 842 348 840 361 q 844 308 844 335 q 833 292 844 294 q 808 290 822 290 z "},"s":{"ha":688,"x_min":-40,"x_max":726,"o":"m 439 -12 q 340 17 385 -7 q 260 72 294 42 q 201 133 225 103 q 167 182 178 163 l 150 199 q 108 259 138 217 q 49 346 79 301 q -28 457 13 397 q -40 488 -40 468 q -28 521 -40 508 q 4 519 -15 521 q 36 504 24 517 q 73 442 49 481 q 124 363 97 403 q 176 291 151 324 q 214 246 201 258 q 215 238 213 242 q 231 229 218 229 q 262 184 242 211 q 309 131 282 157 q 369 87 336 106 q 439 68 403 68 q 476 70 457 68 q 513 78 494 72 q 549 97 531 85 q 585 132 567 110 q 644 228 626 183 q 650 310 663 274 q 554 403 625 358 q 375 471 483 447 q 210 542 279 496 q 117 649 142 588 q 117 757 104 699 q 167 876 129 815 q 242 947 199 924 q 333 978 286 971 q 426 978 379 985 q 510 961 472 972 q 572 939 547 950 q 600 924 596 928 q 612 918 606 924 q 621 905 618 913 q 623 890 624 897 q 617 876 622 882 q 599 862 617 864 q 569 860 582 860 q 436 899 500 890 q 380 902 408 903 q 324 894 351 901 q 273 870 297 886 q 231 826 249 854 q 187 742 193 778 q 181 682 181 707 q 256 605 206 633 q 392 551 306 576 q 486 524 435 540 q 584 481 538 507 q 667 418 631 456 q 714 326 703 381 q 710 218 726 278 q 633 85 694 158 q 439 -12 536 -12 z "},"t":{"ha":642,"x_min":-194,"x_max":763,"o":"m 358 -89 q 336 -78 346 -89 q 326 -56 326 -67 q 300 103 311 31 q 291 165 296 133 q 283 222 286 196 q 277 269 279 249 q 275 300 275 290 q 264 363 269 313 q 253 481 258 413 q 242 628 247 550 q 232 776 236 707 q 225 894 228 844 q 222 957 222 944 q 220 995 210 983 q 256 1007 231 1007 q 280 997 271 1007 q 289 974 289 988 q 299 840 293 911 q 311 699 306 769 q 322 563 317 629 q 332 445 328 497 q 339 358 336 393 q 342 315 342 324 q 356 240 349 296 q 372 121 364 183 q 392 -37 381 49 q 388 -76 392 -62 q 358 -89 383 -89 m -147 839 q -171 841 -161 839 q -181 857 -181 843 q -185 895 -194 882 q -165 908 -176 908 q -126 922 -161 913 q -37 945 -90 932 q 83 973 17 958 q 215 999 149 988 q 341 1019 281 1011 q 443 1026 401 1026 q 567 1016 514 1019 q 657 1010 621 1013 q 729 1007 700 1007 q 753 995 743 1007 q 763 957 763 983 q 753 935 763 946 q 729 924 743 924 q 650 932 694 928 q 560 938 613 935 q 443 942 507 942 q 342 934 401 942 q 219 915 283 926 q 90 890 154 904 q -25 865 26 876 q -110 847 -76 854 q -147 839 -143 839 z "},"u":{"ha":717,"x_min":-39,"x_max":735,"o":"m 347 -10 l 275 -10 q 142 65 196 4 q 54 209 89 125 q 1 389 19 293 q -27 570 -18 485 q -37 719 -36 656 q -39 801 -39 782 q -28 842 -39 829 q -1 856 -17 856 l 17 856 q 42 842 31 856 q 53 801 53 829 q 55 687 53 756 q 65 541 57 618 q 87 386 72 464 q 126 244 101 308 q 188 135 151 179 q 275 82 224 92 q 408 82 344 68 q 514 138 472 96 q 613 299 583 193 q 643 543 643 404 l 643 911 q 697 967 643 967 q 724 953 713 967 q 735 911 735 939 l 735 543 q 694 269 735 390 q 568 64 653 147 q 521 29 547 43 q 465 6 494 15 q 406 -6 436 -3 q 347 -10 375 -10 z "},"v":{"ha":588,"x_min":-67,"x_max":615,"o":"m 351 -28 l 235 72 q 173 144 206 97 q 108 245 140 190 q 47 359 76 300 q -7 469 17 418 q -47 558 -31 521 q -67 608 -62 596 q -62 633 -67 621 q -33 658 -58 646 q -8 654 -21 658 q 17 625 4 650 q 42 559 25 600 q 83 469 60 518 q 132 369 106 421 q 185 273 158 318 q 238 192 213 228 q 285 139 264 156 l 351 89 q 374 212 360 135 q 407 380 389 289 q 444 568 425 471 q 481 753 463 665 q 513 908 499 840 q 536 1010 528 976 q 549 1033 536 1022 q 586 1043 561 1043 q 607 1018 599 1031 q 603 993 615 1006 q 585 902 596 961 q 559 768 574 843 q 528 607 544 693 q 497 436 513 521 q 418 6 461 238 l 351 -28 z "},"w":{"ha":828,"x_min":-10,"x_max":861,"o":"m 143 -4 l 58 14 l -10 592 q 1 617 -10 606 q 24 628 13 628 q 48 630 38 640 q 58 592 58 619 l 128 185 l 314 729 l 382 729 l 757 167 q 755 126 757 142 q 742 97 753 111 q 715 99 728 97 q 690 115 703 101 l 365 628 l 143 -4 m 724 29 q 688 42 699 29 q 690 81 676 56 l 775 1003 q 788 1026 775 1015 q 826 1038 801 1038 q 850 1018 839 1038 q 861 986 861 999 l 757 64 q 747 40 757 51 q 724 29 738 29 z "},"x":{"ha":894,"x_min":-65,"x_max":1006,"o":"m 53 -49 q 35 -47 39 -49 q 18 -31 31 -44 q 4 -11 4 -31 q 18 21 4 8 q 57 85 28 38 q 127 202 86 133 q 218 353 168 271 q 322 520 268 435 q 428 688 375 606 q 526 839 481 771 q 608 954 572 907 q 664 1018 644 1001 q 718 1018 690 1044 q 718 965 743 993 q 662 892 700 947 q 571 758 624 838 q 456 579 518 678 q 329 376 393 481 q 203 166 265 271 q 89 -31 140 61 q 76 -34 82 -31 q 64 -40 69 -37 q 53 -49 58 -44 m 944 74 l 942 82 q 937 88 939 85 q 928 92 935 92 l 804 178 q 694 235 769 200 q 528 308 619 269 q 339 387 436 347 q 160 458 242 426 q 24 509 78 489 q -35 529 -31 529 q -56 555 -47 543 q -51 581 -65 567 q -32 606 -51 594 q 0 617 -12 617 q 35 599 3 614 q 119 564 68 585 q 237 516 171 543 q 374 459 303 489 q 517 399 446 429 q 652 340 589 368 q 765 289 715 313 q 840 249 814 265 l 981 161 q 981 110 1006 135 q 969 85 981 96 q 944 74 958 74 z "},"y":{"ha":810,"x_min":-74,"x_max":1053,"o":"m 343 457 l -50 821 q -50 867 -74 844 q -28 880 -39 878 q -6 882 -17 882 l 374 532 q 417 593 389 556 q 478 674 444 631 q 551 765 513 718 q 624 852 589 811 q 690 925 660 893 q 739 972 719 957 q 785 972 761 997 q 796 944 796 961 q 785 928 796 928 q 736 881 765 913 q 672 809 707 850 q 600 721 638 768 q 526 626 563 674 q 458 535 490 579 q 404 457 426 490 l 343 457 m 390 -121 q 369 -111 378 -121 q 360 -90 360 -101 l 360 61 q 346 122 360 96 q 297 182 332 149 q 275 228 286 206 q 253 275 264 251 q 230 343 229 310 q 244 406 231 376 q 282 460 258 436 q 329 501 306 485 q 374 501 351 528 q 386 474 386 490 q 374 457 386 457 q 358 435 374 450 q 326 398 342 419 q 303 352 310 376 q 314 306 296 328 q 336 267 325 282 q 360 229 347 253 q 384 194 371 211 q 408 156 397 176 q 427 113 419 136 q 435 61 435 90 l 435 -90 q 424 -111 435 -101 q 390 -121 414 -121 m 54 -90 q 33 -83 43 -90 q 24 -75 28 -79 q 20 -39 13 -51 q 40 -14 28 -26 q 92 3 47 -11 q 202 34 136 17 q 348 70 268 51 q 506 103 428 89 q 654 123 585 117 q 769 122 724 129 q 886 90 838 111 q 967 50 935 69 q 1026 0 1003 26 q 1026 -44 1053 -22 q 999 -56 1015 -56 q 982 -44 982 -56 q 931 -10 963 -26 q 860 21 903 6 q 754 47 817 36 q 653 49 717 54 q 517 28 590 43 q 367 -5 443 14 q 228 -41 292 -24 q 122 -72 165 -58 q 71 -90 78 -86 l 54 -90 z "},"z":{"ha":774,"x_min":-69,"x_max":967,"o":"m 929 -57 l 908 -57 l 717 -37 q 633 -27 681 -31 q 531 -22 585 -24 q 420 -22 476 -21 q 310 -24 364 -22 q 46 -37 182 -28 l 7 40 l 640 826 q 474 872 554 860 q 322 881 393 883 q 192 867 251 879 q 89 842 133 856 q 18 818 44 829 q -12 807 -8 807 q -41 809 -28 807 q -69 826 -54 811 q -67 872 -69 854 q -50 904 -65 889 q -14 916 -46 904 q 72 942 18 928 q 199 969 126 957 q 358 981 272 981 q 540 964 443 981 q 738 904 636 947 l 757 826 l 142 58 q 278 69 200 65 q 440 72 357 72 q 601 69 522 72 q 738 58 679 65 l 929 40 q 956 10 944 25 q 967 -19 967 -4 q 956 -45 967 -33 q 929 -57 944 -57 z "},"A":{"ha":786,"x_min":1,"x_max":1006,"o":"m 72 7 l 3 42 q 22 135 1 83 q 83 238 40 179 q 211 369 126 297 q 291 422 250 408 q 385 421 332 436 q 446 409 417 421 q 501 378 475 397 q 550 333 528 358 q 592 283 572 308 l 592 492 q 592 563 597 518 q 572 653 586 607 q 535 741 557 700 q 486 801 513 782 q 401 844 454 828 q 290 871 347 861 q 183 885 233 881 q 107 889 133 889 q 83 899 94 889 q 72 922 72 910 q 83 947 72 936 q 107 957 94 957 q 136 956 111 957 q 199 953 161 956 q 284 947 238 951 q 378 932 331 942 q 467 907 425 922 q 540 871 510 892 q 598 792 572 844 q 641 679 624 739 q 668 563 658 619 q 678 472 678 506 q 668 435 671 460 q 663 381 665 411 q 661 315 661 350 q 661 249 661 281 q 803 247 726 249 q 971 232 879 244 q 995 213 985 232 q 1006 179 1006 193 q 980 156 993 167 q 954 144 967 144 q 801 163 875 158 q 661 179 726 167 l 661 144 l 592 128 q 574 151 578 140 q 557 163 569 163 q 335 131 426 156 q 185 78 243 106 q 72 7 117 46 m 349 351 q 299 341 322 351 q 263 318 275 331 q 207 267 231 292 q 165 219 183 242 q 133 176 147 196 q 107 144 119 157 q 178 173 139 157 q 267 203 218 189 q 374 230 315 218 q 506 249 433 242 q 442 313 479 288 q 365 351 406 339 l 349 351 z "},"B":{"ha":621,"x_min":-29,"x_max":664,"o":"m 214 35 q 189 45 201 35 q 163 68 176 56 l 82 708 q 92 731 82 721 q 114 740 103 740 q 139 736 126 740 q 163 708 151 732 l 246 86 q 235 47 246 60 q 214 35 225 35 m 442 3 q 313 31 374 3 q 203 93 251 58 q 99 183 147 132 q 86 216 86 194 q 99 250 86 238 q 147 250 122 274 q 239 168 190 204 q 333 111 281 136 q 442 86 386 86 q 488 97 467 86 q 526 124 510 107 q 555 160 543 140 q 574 199 567 181 q 575 232 574 211 q 573 276 576 253 q 559 322 569 299 q 525 364 549 344 q 456 378 500 376 q 376 381 413 381 q 288 317 328 338 q 221 290 249 296 q 178 288 193 283 q 163 299 163 292 l 147 364 q 171 372 153 364 q 215 392 189 381 q 274 419 240 404 q 344 446 307 433 q 406 536 375 476 q 463 663 438 596 q 501 797 488 731 q 508 904 514 863 q 498 943 508 931 q 476 956 488 956 q 402 934 451 961 q 293 859 353 907 q 169 749 233 811 q 50 625 106 688 q 15 606 36 614 q -17 610 -6 597 q -29 642 -29 621 q -17 676 -29 664 q 35 728 0 692 q 117 809 71 765 q 216 897 163 853 q 322 974 269 942 q 424 1022 375 1007 q 508 1019 472 1036 q 553 995 532 1019 q 574 922 574 971 q 578 820 586 879 q 551 698 571 761 q 502 573 532 635 q 442 461 472 511 q 508 451 479 461 q 574 429 538 442 q 644 319 624 381 q 640 183 664 258 q 560 49 615 96 q 442 3 504 3 z "},"C":{"ha":942,"x_min":-1,"x_max":1028,"o":"m 583 10 q 482 21 539 10 q 346 54 425 32 q 200 125 260 81 q 101 224 140 169 q 40 338 61 279 q 8 451 18 396 q -1 550 -1 506 q 3 621 -1 594 q 71 833 25 757 q 196 919 117 908 q 267 923 218 926 q 378 909 317 919 q 505 884 439 899 q 628 856 571 869 q 727 831 686 842 q 779 815 768 819 q 805 806 801 815 q 808 786 808 797 q 792 754 808 764 q 764 757 775 744 q 610 792 696 774 q 442 824 524 810 q 297 844 361 838 q 211 846 233 851 q 121 783 154 846 q 76 606 88 719 q 67 546 69 583 q 71 462 64 508 q 96 365 78 415 q 148 268 114 315 q 234 181 182 221 q 361 114 286 140 q 530 80 467 86 q 632 88 593 74 q 695 135 671 101 q 747 218 719 168 l 764 247 q 831 367 797 304 q 893 482 865 429 q 957 606 926 544 q 979 619 968 617 q 1001 621 990 621 q 1020 599 1013 610 q 1017 576 1028 588 q 999 535 1017 571 q 953 446 982 499 q 891 329 925 393 q 824 203 857 265 l 808 189 q 764 117 785 150 q 718 60 743 85 q 660 23 693 36 q 583 10 628 10 z "}}}
